<?xml version="1.0" standalone="no"?>
<!DOCTYPE svg PUBLIC "-//W3C//DTD SVG 20010904//EN"
 "http://www.w3.org/TR/2001/REC-SVG-20010904/DTD/svg10.dtd">
<svg version="1.0" xmlns="http://www.w3.org/2000/svg"
 width="1074.000000pt" height="980.000000pt" viewBox="0 0 1074.000000 980.000000"
 preserveAspectRatio="xMidYMid meet">

<g transform="translate(0.000000,980.000000) scale(0.100000,-0.100000)"
fill="#000000" stroke="none">
<path d="M5534 9652 c-839 -334 -1456 -1103 -1603 -1997 -72 -440 -35 -872
114 -1305 50 -145 188 -422 280 -560 368 -552 906 -935 1545 -1099 287 -73
592 -96 887 -66 1256 128 2228 1102 2352 2359 29 288 1 627 -75 913 -211 796
-804 1464 -1566 1761 l-106 42 -854 0 -853 0 -121 -48z m1256 -116 c432 -54
832 -223 1174 -496 475 -379 786 -948 857 -1570 13 -120 7 -481 -10 -575 -29
-155 -35 -186 -58 -274 -66 -255 -206 -547 -365 -763 -383 -520 -909 -834
-1573 -940 -49 -8 -170 -12 -315 -12 -263 1 -386 17 -614 79 -398 109 -778
338 -1065 641 -333 352 -537 774 -617 1276 -23 142 -23 504 0 646 66 418 220
785 458 1094 86 111 253 285 360 375 281 235 659 416 1021 489 219 45 529 57
747 30z"/>
<path d="M6408 8758 l-3 -201 -80 -21 c-266 -71 -463 -215 -559 -411 -47 -95
-66 -171 -73 -290 -13 -255 96 -458 330 -610 112 -73 232 -128 432 -200 341
-123 445 -208 445 -365 0 -127 -81 -207 -247 -246 -53 -13 -99 -15 -213 -10
-207 8 -360 45 -549 132 -52 24 -95 43 -97 41 -4 -4 -116 -438 -122 -470 -4
-25 0 -29 54 -53 176 -79 450 -144 604 -144 l50 0 2 -202 3 -203 207 -3 208
-2 2 217 3 217 40 9 c82 18 200 59 274 96 197 99 329 247 398 446 25 74 27 92
28 235 0 135 -3 165 -23 230 -34 107 -84 193 -161 270 -115 116 -253 194 -529
299 -291 111 -411 178 -464 260 -26 41 -29 53 -26 107 9 149 133 224 368 224
183 -1 331 -31 495 -101 53 -23 99 -38 103 -34 4 4 35 109 68 233 70 259 73
235 -35 277 -113 43 -261 76 -393 88 l-128 11 0 188 0 188 -205 0 -205 0 -2
-202z"/>
<path d="M10072 4744 c-222 -48 -448 -189 -997 -619 -356 -280 -485 -369 -705
-492 -580 -324 -965 -466 -1485 -545 -198 -30 -620 -33 -780 -6 -245 43 -415
106 -511 190 -37 33 -67 81 -57 92 14 13 189 5 477 -23 461 -45 611 -54 851
-49 198 5 230 8 325 33 355 92 597 332 556 550 -9 45 -64 107 -119 134 -90 43
-267 65 -637 76 -321 10 -469 31 -944 135 -597 130 -912 171 -1517 201 -516
25 -877 -43 -1248 -237 -285 -148 -530 -357 -851 -724 -75 -85 -197 -225 -272
-311 -154 -175 -349 -367 -678 -668 -250 -228 -820 -735 -1153 -1026 -120
-104 -216 -195 -215 -202 7 -30 372 -353 555 -491 320 -242 666 -409 942 -456
279 -47 526 16 703 182 28 26 103 115 168 197 254 325 476 521 879 774 246
156 415 216 716 256 275 36 568 30 1229 -25 540 -45 720 -53 940 -47 145 4
228 12 298 27 430 91 1218 477 1878 920 237 159 359 255 595 466 1057 943
1464 1371 1465 1540 0 24 -9 40 -40 67 -96 87 -218 114 -368 81z"/>
</g>
</svg>
